<?xml version="1.0" encoding="UTF-8" standalone="no"?>
<svg
   version="1.1"
   viewBox="0 0 192 192"
   matcher="0.455049995150671"
   id="svg435430"
   sodipodi:docname="logo.svg"
   inkscape:version="1.2.2 (732a01da63, 2022-12-09)"
   width="192"
   height="192"
   xmlns:inkscape="http://www.inkscape.org/namespaces/inkscape"
   xmlns:sodipodi="http://sodipodi.sourceforge.net/DTD/sodipodi-0.dtd"
   xmlns="http://www.w3.org/2000/svg"
   xmlns:svg="http://www.w3.org/2000/svg">
  <defs
     id="defs435434">
    <defs
       id="defs435407" />
    <mask
       maskUnits="userSpaceOnUse"
       id="mask111700">
      <g
         id="g111704">
        <rect
           width="70.0625"
           height="17"
           x="335.07812"
           y="31.5"
           fill="#ffffff"
           id="rect111702" />
      </g>
    </mask>
    <mask
       maskUnits="userSpaceOnUse"
       id="mask103908">
      <g
         id="g103912">
        <rect
           width="96.140625"
           height="17"
           x="580.10938"
           y="31.5"
           fill="#ffffff"
           id="rect103910" />
      </g>
    </mask>
    <mask
       maskUnits="userSpaceOnUse"
       id="mask103849">
      <g
         id="g103853">
        <rect
           width="96.21875"
           height="17"
           x="706.25"
           y="31.5"
           fill="#ffffff"
           id="rect103851" />
      </g>
    </mask>
    <mask
       maskUnits="userSpaceOnUse"
       id="mask103770">
      <g
         id="g103774">
        <rect
           width="50.625"
           height="17"
           x="1730.6406"
           y="31.5"
           fill="#ffffff"
           id="rect103772" />
      </g>
    </mask>
    <mask
       maskUnits="userSpaceOnUse"
       id="mask103782">
      <g
         id="g103786">
        <rect
           width="31.734375"
           height="17"
           x="1841.2656"
           y="31.5"
           fill="#ffffff"
           id="rect103784" />
      </g>
    </mask>
    <mask
       id="mask269866">
      <rect
         width="14"
         height="10"
         x="291.07812"
         y="35"
         fill="#ffffff"
         id="rect269864" />
    </mask>
    <mask
       maskUnits="userSpaceOnUse"
       id="mask4137">
      <g
         id="g4143"
         style="stroke-width:0.416667"
         transform="matrix(2.3999981,0,0,2.3999981,-3078.7665,-492.4444)">
        <g
           id="g4141"
           style="stroke-width:0.416667">
          <rect
             width="14"
             height="10"
             x="1280.8206"
             y="205.18533"
             fill="#ffffff"
             id="rect4139"
             style="stroke-width:0.173611" />
        </g>
      </g>
    </mask>
    <mask
       maskUnits="userSpaceOnUse"
       id="mask4145">
      <g
         id="g4151"
         style="stroke-width:0.416667"
         transform="matrix(2.3999981,0,0,2.3999981,-3078.7665,-492.4444)">
        <g
           id="g4149"
           style="stroke-width:0.416667">
          <rect
             width="14"
             height="10"
             x="1280.8206"
             y="205.18533"
             fill="#ffffff"
             id="rect4147"
             style="stroke-width:0.173611" />
        </g>
      </g>
    </mask>
  </defs>
  <sodipodi:namedview
     id="namedview435432"
     pagecolor="#ffffff"
     bordercolor="#000000"
     borderopacity="0.25"
     inkscape:showpageshadow="2"
     inkscape:pageopacity="0.0"
     inkscape:pagecheckerboard="0"
     inkscape:deskcolor="#d1d1d1"
     showgrid="false"
     inkscape:zoom="1.2829611"
     inkscape:cx="96.261689"
     inkscape:cy="17.927278"
     inkscape:window-width="1920"
     inkscape:window-height="1017"
     inkscape:window-x="-8"
     inkscape:window-y="1072"
     inkscape:window-maximized="1"
     inkscape:current-layer="svg435430" />
  <svg
     width="395.51999"
     viewBox="2.0799999 -38.279999 239.62 50.239998"
     height="82.923813"
     data-palette-color="#336a86"
     version="1.1"
     id="svg435357"
     transform="matrix(1.6505537,0,0,1.6505537,-3.4259916,63.183193)"
     style="stroke-width:0.605857" />
  <svg
     width="141.60332"
     viewBox="-0.25 -30.950001 131.23 47.5"
     height="51.246918"
     data-palette-color="#8eaec4"
     version="1.1"
     id="svg435366"
     transform="matrix(1.0788825,0,0,1.0788825,0.28050543,33.391414)"
     style="stroke-width:0.926885" />
  <g
     id="g16152"
     transform="translate(0,47.371963)">
    <path
       fill="#283132"
       d="m 166.88974,115.661 a 14.477932,14.477932 0 0 0 -14.48301,14.48309 14.486368,14.486368 0 0 0 14.48301,14.48301 14.477932,14.477932 0 0 0 14.47962,-14.48301 14.477932,14.477932 0 0 0 -14.47962,-14.48309 m -10e-4,20.72136 a 6.2366478,6.2366478 0 0 1 -6.23156,-6.23664 6.2332723,6.2332723 0 0 1 6.23156,-6.24504 6.2433973,6.2433973 0 0 1 6.24847,6.24504 6.2518342,6.2518342 0 0 1 -6.24847,6.23664"
       data-fill-palette-color="accent"
       id="path435380-6"
       style="stroke-width:2.63573" />
    <path
       fill="#283132"
       d="M 176.37294,72.176584 H 156.89861 V 61.716376 l -1.14236,-4.620048 -3.20102,-3.524912 -2.8247,4.994608 1.41236,3.148704 v 10.460224 h -6.18774 v 53.105988 h 4.58469 c 2.12613,-7.58314 9.09342,-13.17687 17.34821,-13.17687 8.26153,0 15.22208,5.59208 17.35326,13.17687 H 192 V 95.169192 Z M 166.31265,95.169192 V 75.639224 h 7.17316 l 13.27144,19.529968 z"
       data-fill-palette-color="accent"
       id="path435382-1"
       style="stroke-width:2.63573" />
    <path
       fill="#283132"
       d="m 23.689454,115.661 h -0.09104 c -7.959472,0 -14.427296,6.42915 -14.479616,14.39699 -0.04736,7.99167 6.39864,14.50834 14.393568,14.56911 h 0.09104 c 7.952736,0 14.430672,-6.43578 14.481296,-14.397 0.04736,-8.00163 -6.398624,-14.52516 -14.395248,-14.5691 m -0.1248,20.47661 a 5.9902866,5.9902866 0 0 1 -5.963344,-6.02562 5.9902866,5.9902866 0 0 1 6.039216,-5.96835 6.0004107,6.0004107 0 0 1 5.961616,6.03582 5.9953483,5.9953483 0 0 1 -6.037552,5.95815"
       data-fill-palette-color="accent"
       id="path435384-8"
       style="stroke-width:2.63573" />
    <path
       fill="#283132"
       d="m 57.02075,115.66793 a 14.477932,14.477932 0 0 0 -14.05944,14.89294 c 0.227824,7.98816 6.899792,14.29064 14.891344,14.06109 7.991552,-0.23112 14.280512,-6.90142 14.051024,-14.89474 A 14.469494,14.469494 0 0 0 57.02075,115.66793 m 0.587232,20.46641 a 5.9961269,5.9961269 0 1 1 -0.34256,-11.98736 5.9961269,5.9961269 0 0 1 0.34256,11.98736"
       data-fill-palette-color="accent"
       id="path435386-8"
       style="stroke-width:2.63573" />
    <path
       fill="#283132"
       d="M -1.9999999e-6,125.28094 H 6.258558 c 0.448864,-1.59125 1.150816,-3.0693 1.991152,-4.45306 H -1.9999999e-6 Z"
       data-fill-palette-color="accent"
       id="path435388-0"
       style="stroke-width:2.63573" />
    <path
       fill="#283132"
       d="m 74.785774,125.28094 h 31.421156 v -4.45306 H 72.799678 c 0.83864,1.38376 1.538928,2.86181 1.986096,4.45306"
       data-fill-palette-color="accent"
       id="path435390-5"
       style="stroke-width:2.63573" />
    <path
       fill="#283132"
       d="m 40.51795,123.94969 c 0.404976,-1.10037 0.948304,-2.12952 1.54904,-3.12181 h -3.099776 c 0.604112,0.99392 1.14744,2.02144 1.550736,3.12181"
       data-fill-palette-color="accent"
       id="path435392-6"
       style="stroke-width:2.63573" />
    <path
       fill="#283132"
       d="m -1.9999999e-6,106.07658 v 11.70045 H 10.514206 a 17.937112,17.937112 0 0 1 13.085824,-5.66968 h 0.1096 c 5.109472,0.0334 9.67728,2.22575 12.930592,5.66968 h 7.758672 c 3.28032,-3.47096 7.89032,-5.66968 13.040288,-5.66968 5.158384,0 9.81056,2.18181 13.099296,5.66968 h 35.670082 v -11.70045 z"
       data-fill-palette-color="accent"
       id="path435394-7"
       style="stroke-width:2.63573" />
    <rect
       style="fill:#283132;fill-opacity:1;stroke:none;stroke-width:0.37795;stroke-linejoin:round;stop-color:#000000"
       id="rect437560-1"
       width="34.321552"
       height="11.700467"
       x="105.08823"
       y="106.07661" />
    <rect
       style="fill:#283132;fill-opacity:1;stroke:none;stroke-width:0.37795;stroke-linejoin:round;stop-color:#000000"
       id="rect437560-7-0"
       width="36.703785"
       height="4.4530067"
       x="102.65371"
       y="120.82797" />
    <g
       aria-label="Shipify"
       id="text436098-3-3-8"
       style="font-size:68.7181px;font-family:Haettenschweiler;-inkscape-font-specification:'Haettenschweiler, Normal';fill:#5b7c5b;stroke:#6f917c;stroke-width:0.37795;stroke-linejoin:round;stop-color:#000000">
      <path
         d="m 1.1408285,76.664382 h 9.6299295 v 11.039187 q 0,1.644134 1.979672,1.644134 1.912564,0 1.912564,-1.644134 V 81.99943 q 0,-2.617194 -3.489591,-6.140339 Q 4.429097,69.316108 2.7849627,67.068006 1.1408285,64.819904 1.1408285,62.135603 v -5.402155 q 0,-9.361499 12.2135685,-9.361499 10.938526,0 10.938526,8.522655 v 8.321332 h -9.629929 v -8.858192 q 0,-1.442812 -1.577027,-1.442812 -1.845457,0 -1.845457,2.784962 l 0.201323,3.1205 q 0,2.684301 3.556699,6.240999 6.61009,6.341661 8.38844,8.858193 1.811903,2.516532 1.811903,5.704139 v 6.140338 q 0,9.596376 -12.247123,9.596376 -11.8109235,0 -11.8109235,-8.723978 z"
         style="stroke:none"
         id="path16119" />
      <path
         d="M 49.793782,95.92424 H 40.264514 V 64.51792 q 0,-1.778349 -1.644135,-1.778349 -1.677688,0 -1.677688,1.711242 V 95.92424 H 27.413423 V 47.808148 h 9.529268 v 10.334558 q 1.711242,-1.442812 5.939016,-1.442812 2.818516,0 4.865295,1.476366 2.04678,1.476365 2.04678,3.92579 z"
         style="stroke:none"
         id="path16121" />
      <path
         d="m 61.369828,54.820884 h -9.562821 v -7.012736 h 9.562821 z m 0,41.103356 H 51.807007 V 56.968324 h 9.562821 z"
         style="stroke:none"
         id="path16123" />
      <path
         d="m 72.878769,95.018289 v 9.160181 H 63.349501 V 56.968324 h 7.214059 l 0.80529,1.577027 q 2.348763,-1.845457 5.569924,-1.845457 3.254715,0 6.006123,1.644134 2.784962,1.644135 2.784962,4.731081 v 27.983836 q 0,2.449424 -2.013225,3.92579 -2.013226,1.476365 -4.898849,1.476365 -3.992898,0 -5.939016,-1.442811 z m 3.321822,-6.375215 V 64.51792 q 0,-1.778349 -1.644134,-1.778349 -1.677688,0 -1.677688,1.778349 v 24.192262 q 0,1.711241 1.677688,1.711241 1.644134,0 1.644134,-1.778349 z"
         style="stroke:none"
         id="path16125" />
      <path
         d="m 97.238801,54.820884 h -9.562822 v -7.012736 h 9.562822 z m 0,41.103356 H 87.675979 V 56.968324 h 9.562822 z"
         style="stroke:none"
         id="path16127" />
      <path
         d="m 117.20328,62.739571 h -5.50281 V 95.92424 H 102.1712 V 62.739571 h -3.221164 v -5.771247 h 3.221164 q 0,-5.133725 1.27504,-7.146951 1.3086,-2.013225 7.71736,-2.013225 h 6.03968 v 5.234386 h -1.84546 q -2.44942,0 -3.05339,0.939505 -0.60396,0.905952 -0.60396,2.986285 h 5.50281 z"
         style="stroke:none"
         id="path16129" />
      <path
         d="m 143.54299,56.968324 -7.41538,38.754594 q -1.14083,5.939012 -3.08695,7.180502 -1.91256,1.27505 -5.33505,1.27505 h -6.67719 v -5.234391 q 3.75802,0 4.66397,-0.369092 0.90595,-0.369091 0.90595,-2.180994 0,-1.811903 -4.12711,-18.890767 l -4.96596,-20.534902 h 9.56282 l 3.9929,20.602009 3.15405,-20.602009 z"
         style="stroke:none"
         id="path16131" />
    </g>
  </g>
  <text
     xml:space="preserve"
     style="font-style:normal;font-variant:normal;font-weight:normal;font-stretch:normal;font-size:68.7181px;font-family:Haettenschweiler;-inkscape-font-specification:'Haettenschweiler, Normal';font-variant-ligatures:normal;font-variant-caps:normal;font-variant-numeric:normal;font-variant-east-asian:normal;fill:#5b7c5b;fill-opacity:1;stroke:#6f917c;stroke-width:0.37795;stroke-linejoin:round;stop-color:#000000"
     x="296.01138"
     y="-2.403209"
     id="text436098-3-3-8-8"><tspan
       sodipodi:role="line"
       id="tspan436096-1-3-0-0"
       x="296.01138"
       y="-2.403209"
       style="font-style:normal;font-variant:normal;font-weight:normal;font-stretch:normal;font-size:68.7181px;font-family:Haettenschweiler;-inkscape-font-specification:'Haettenschweiler, Normal';font-variant-ligatures:normal;font-variant-caps:normal;font-variant-numeric:normal;font-variant-east-asian:normal;fill:#5b7c5b;fill-opacity:1;stroke:none;stroke-width:0.37795">Shipify</tspan></text>
</svg>
